<?xml version="1.0" encoding="UTF-8" standalone="no"?>
<!-- Created with Inkscape (http://www.inkscape.org/) -->

<svg
   xmlns:dc="http://purl.org/dc/elements/1.1/"
   xmlns:cc="http://creativecommons.org/ns#"
   xmlns:rdf="http://www.w3.org/1999/02/22-rdf-syntax-ns#"
   xmlns:svg="http://www.w3.org/2000/svg"
   xmlns="http://www.w3.org/2000/svg"
   xmlns:sodipodi="http://sodipodi.sourceforge.net/DTD/sodipodi-0.dtd"
   xmlns:inkscape="http://www.inkscape.org/namespaces/inkscape"
   width="512"
   height="256"
   id="svg2"
   version="1.1"
   inkscape:version="0.48.4 r9939"
   sodipodi:docname="logo.svg"
   inkscape:export-filename="/data/Home/Projects/evflow/evflow/logo-icon.png"
   inkscape:export-xdpi="70.3125"
   inkscape:export-ydpi="70.3125">
  <defs
     id="defs4" />
  <sodipodi:namedview
     id="base"
     pagecolor="#252525"
     bordercolor="#666666"
     borderopacity="1.0"
     inkscape:pageopacity="0"
     inkscape:pageshadow="2"
     inkscape:zoom="2"
     inkscape:cx="295.64539"
     inkscape:cy="185.10781"
     inkscape:document-units="px"
     inkscape:current-layer="layer1"
     showgrid="false"
     inkscape:window-width="1920"
     inkscape:window-height="1014"
     inkscape:window-x="0"
     inkscape:window-y="27"
     inkscape:window-maximized="1"
     inkscape:snap-page="true">
    <inkscape:grid
       type="xygrid"
       id="grid3090"
       empspacing="5"
       visible="true"
       enabled="true"
       snapvisiblegridlinesonly="true" />
  </sodipodi:namedview>
  <metadata
     id="metadata7">
    <rdf:RDF>
      <cc:Work
         rdf:about="">
        <dc:format>image/svg+xml</dc:format>
        <dc:type
           rdf:resource="http://purl.org/dc/dcmitype/StillImage" />
        <dc:title></dc:title>
      </cc:Work>
    </rdf:RDF>
  </metadata>
  <g
     inkscape:groupmode="layer"
     id="layer2"
     inkscape:label="Icon"
     style="display:none">
    <g
       style="font-size:48.26546097px;font-style:normal;font-weight:normal;line-height:125%;letter-spacing:0px;word-spacing:0px;fill:#3f3f3f;fill-opacity:1;stroke:#3f3f3f;stroke-width:4;stroke-miterlimit:4;stroke-opacity:1;stroke-dasharray:none;font-family:Sans"
       id="text3763"
       inkscape:export-xdpi="90"
       inkscape:export-ydpi="90"
       transform="matrix(0.95384612,0,0,0.95384612,11.815393,5.9077012)">
      <path
         d="m 363.00453,128 c -2.3e-4,4.44052 -0.869,8.59135 -2.60634,12.45249 -1.54471,3.66826 -3.76492,6.95031 -6.66063,9.84615 -2.89614,2.89601 -6.27472,5.21275 -10.13575,6.95023 -3.86144,1.54457 -7.91573,2.31681 -12.16289,2.31674 l -75.58372,0 c -8.49483,7e-5 -15.83117,-3.08891 -22.00905,-9.26697 -6.17807,-6.17789 -9.26705,-13.61076 -9.26697,-22.29864 -8e-5,-4.24725 0.77216,-8.30155 2.31675,-12.1629 1.73746,-3.86111 3.95767,-7.23969 6.66063,-10.13575 2.89583,-2.89579 6.17788,-5.116 9.84615,-6.660631 3.86113,-1.737419 8.01196,-2.606196 12.45249,-2.606335 l 75.58372,0 c 4.24716,1.39e-4 8.30145,0.868916 12.16289,2.606335 3.86103,1.544631 7.23961,3.764841 10.13575,6.660631 2.89571,2.89606 5.11592,6.27464 6.66063,10.13575 1.73734,3.86135 2.60611,7.91565 2.60634,12.1629 m 0,75.58371 c -2.3e-4,4.44045 -0.869,8.59128 -2.60634,12.45249 -1.54471,3.66819 -3.76492,6.95024 -6.66063,9.84615 -2.89614,2.89594 -6.27472,5.21268 -10.13575,6.95023 -3.86144,1.5445 -7.91573,2.31674 -12.16289,2.31674 l -75.58372,0 c -29.53855,0 -54.7331,-10.42533 -75.58371,-31.27602 C 159.42079,183.02268 148.99546,157.7316 148.99547,128 148.99546,98.46167 159.42079,73.267124 180.27149,52.416282 201.31517,31.372745 226.50971,20.850884 255.8552,20.85067 l 75.58372,0 c 4.24716,2.14e-4 8.30145,0.868992 12.16289,2.606335 3.86103,1.544705 7.23961,3.764914 10.13575,6.660634 2.89571,2.89613 5.11592,6.274709 6.66063,10.135747 1.73734,3.861428 2.60611,7.915723 2.60634,12.162896 -2.3e-4,4.440601 -0.869,8.591427 -2.60634,12.45249 -1.54471,3.668341 -3.76492,6.95039 -6.66063,9.846154 -2.89614,2.896085 -6.27472,5.212825 -10.13575,6.950227 -3.86144,1.544646 -7.91573,2.316893 -12.16289,2.316742 l -75.58372,0 c -12.163,1.51e-4 -22.58833,4.344038 -31.27602,13.031675 -8.4948,8.49485 -12.74215,18.82365 -12.74208,30.98643 -7e-5,11.96993 4.24728,22.39526 12.74208,31.27602 8.88075,8.49478 19.30608,12.74214 31.27602,12.74208 l 75.58372,0 c 4.24716,6e-5 8.30145,0.86884 12.16289,2.60633 3.86103,1.54456 7.23961,3.76477 10.13575,6.66064 2.89571,2.89598 5.11592,6.27455 6.66063,10.13574 1.73734,3.86128 2.60611,7.91558 2.60634,12.1629 M 383.85521,128 c -2.5e-4,-7.33624 -1.44821,-14.18993 -4.34389,-20.56109 -2.89617,-6.56397 -6.85393,-12.259288 -11.87331,-17.085974 5.01938,-4.826397 8.97714,-10.425185 11.87331,-16.796381 2.89568,-6.563935 4.34364,-13.610685 4.34389,-21.140273 -2.5e-4,-7.143098 -1.35168,-13.900256 -4.0543,-20.271494 C 377.0978,25.773957 373.3331,20.175169 368.50679,15.348407 363.68002,10.522086 358.08123,6.7573836 351.71041,4.0542893 345.33916,1.3516572 338.582,2.2562785e-4 331.43892,-9.5214844e-6 l -75.58372,0 C 220.71786,2.2562785e-4 190.60024,12.549233 165.50226,37.647051 140.59728,62.552202 128.1448,92.66982 128.14479,128 c 1e-5,35.52345 12.45249,65.7376 37.35747,90.64253 C 190.40718,243.5475 220.5248,255.99998 255.8552,256 l 75.58372,0 c 7.14308,-2e-5 13.90024,-1.35145 20.27149,-4.0543 6.37082,-2.70288 11.96961,-6.46758 16.79638,-11.29411 4.82631,-4.82655 8.59101,-10.32881 11.29412,-16.50679 2.70262,-6.37103 4.05405,-13.22472 4.0543,-20.56109 -2.5e-4,-7.33631 -1.44821,-14.19 -4.34389,-20.56109 -2.89617,-6.56404 -6.85393,-12.25936 -11.87331,-17.08597 5.01938,-4.82647 8.97714,-10.42526 11.87331,-16.79638 2.89568,-6.56401 4.34364,-13.61076 4.34389,-21.14027"
         style="font-size:289.59277344px;font-variant:normal;font-stretch:normal;fill:#3f3f3f;fill-opacity:1;stroke:#3f3f3f;stroke-width:4;stroke-miterlimit:4;stroke-opacity:1;stroke-dasharray:none;font-family:Technique OL BRK;-inkscape-font-specification:Technique OL BRK"
         id="path3768"
         inkscape:connector-curvature="0" />
    </g>
    <path
       style="fill:#7c56c2;fill-opacity:1;fill-rule:nonzero;stroke:#3f3f3f;stroke-width:2;stroke-linecap:butt;stroke-linejoin:miter;stroke-miterlimit:4;stroke-opacity:1;stroke-dasharray:none"
       d="m 248.49539,227.74106 c -8.36213,-0.50523 -21.76093,-3.37252 -28.76917,-6.15649 -12.89737,-5.12338 -23.52032,-12.24263 -34.27076,-22.96745 -16.17761,-16.13905 -25.10243,-33.6895 -28.27112,-55.5945 -1.08303,-7.48698 -1.08907,-22.73595 -0.0119,-30.02449 3.19101,-21.591271 12.31317,-39.447609 28.30719,-55.410435 13.97247,-13.945219 29.59097,-22.930817 46.76574,-26.905149 10.61072,-2.455378 13.64788,-2.590759 57.97923,-2.584423 45.78528,0.0065 43.80824,-0.119076 50.55251,3.212092 9.46034,4.672704 16.08781,16.642556 15.01459,27.117798 -1.15337,11.257523 -9.07466,20.806011 -20.29633,24.465626 -2.52566,0.82367 -6.23757,0.92129 -45.5,1.19661 -42.34836,0.296965 -42.78443,0.310245 -46.41465,1.4136 -17.45486,5.30517 -30.0928,20.517291 -31.49268,37.907341 -0.98643,12.25399 2.04476,22.93769 9.11474,32.12565 5.23898,6.80844 13.09907,12.10342 22.13141,14.90888 l 4.41118,1.37012 42.75,0.27532 c 41.82886,0.26939 42.80949,0.29787 45.51124,1.3221 9.51822,3.60836 15.06745,9.04384 18.28619,17.91139 3.5852,9.8771 0.92424,20.77394 -6.95775,28.49263 -4.22771,4.14013 -7.33097,5.92996 -12.6324,7.28583 -3.71013,0.94889 -5.48402,0.98532 -43.66226,0.89659 -21.88726,-0.0509 -41.03252,-0.16726 -42.54502,-0.25864 z"
       id="path3787"
       inkscape:connector-curvature="0" />
    <path
       style="fill:#7c56c2;fill-opacity:1;fill-rule:nonzero;stroke:#3f3f3f;stroke-width:2;stroke-linecap:butt;stroke-linejoin:miter;stroke-miterlimit:4;stroke-opacity:1;stroke-dasharray:none"
       d="m 251.0862,155.54279 c -7.4902,-1.27377 -15.05529,-6.68788 -19.14372,-13.7006 -2.45768,-4.21556 -3.54619,-8.4169 -3.56245,-13.75 -0.0166,-5.44352 0.55754,-8.02614 2.72089,-12.2395 4.15899,-8.10006 10.28646,-13.06784 18.50989,-15.00668 4.65243,-1.096904 79.60603,-1.099442 84.25693,-0.003 14.32447,3.37742 24.06427,17.56745 21.66225,31.55996 -0.7812,4.55076 -3.89547,10.90917 -7.01486,14.32228 -3.08858,3.3794 -7.9702,6.61396 -12.12623,8.03484 -3.10453,1.06139 -3.63644,1.07571 -42.89351,1.15474 -21.8625,0.044 -40.94664,-0.12347 -42.40919,-0.37219 l 0,0 z"
       id="path3789"
       inkscape:connector-curvature="0" />
  </g>
  <g
     inkscape:label="Full Logo"
     inkscape:groupmode="layer"
     id="layer1"
     transform="translate(0,-796.36218)"
     style="display:inline">
    <g
       transform="matrix(0.94632803,0,0,1.2297631,284.34098,-338.91503)"
       style="font-size:168.91261292px;font-style:normal;font-variant:normal;font-weight:normal;font-stretch:normal;text-align:start;line-height:125%;letter-spacing:0px;word-spacing:0px;writing-mode:lr-tb;text-anchor:start;fill:#3f3f3f;fill-opacity:1;stroke:none;font-family:Pacifico;-inkscape-font-specification:Pacifico"
       id="text3042-7">
      <path
         d="m -54.910372,1085.0225 c -6e-6,-0.2749 0.05498,-1.9519 0.164953,-5.031 0.164948,-3.0792 0.439871,-7.1755 0.824769,-12.2891 0.384885,-5.1135 0.907238,-10.9969 1.56706,-17.65 0.659807,-6.7081 1.512067,-13.7736 2.556783,-21.1966 1.09968,-7.4778 2.364324,-15.1207 3.793936,-22.9286 1.484567,-7.86267 3.21658,-15.50552 5.196042,-22.92853 2.034408,-7.42281 4.343757,-14.40584 6.928057,-20.94912 2.584245,-6.59802 5.470933,-12.34391 8.66007,-17.23767 3.244051,-4.94847 6.845537,-8.85237 10.804469,-11.71171 3.958839,-2.85905 8.3026162,-4.28864 13.0313441,-4.2888 1.86941449,1.6e-4 3.8213649,0.33006 5.8558572,0.98972 2.0893467,0.65997 3.9863126,1.73217 5.6909037,3.2166 1.704449,1.48473 3.106554,3.46418 4.20632,5.93834 1.1546,2.41946 1.731937,5.41611 1.732014,8.98997 -7.7e-5,3.24422 -0.52243,6.98317 -1.567061,11.21686 -0.989796,4.17894 -2.419394,8.66018 -4.288796,13.44373 -1.8145603,4.78376 -3.9864489,9.75986 -6.5156725,14.92831 -2.4743676,5.16864 -5.1961014,10.33718 -8.1652093,15.5056 -2.9692202,5.1137 -6.1033382,10.1723 -9.4023622,15.1758 -3.244133,4.9487 -6.570697,9.5949 -9.9797,13.9386 l -0.164954,1.3196 c 9.649793,0 6.477432,-0.2421 9.649793,0 5.443421,10e-5 10.2545665,-0.6323 14.43345058,-1.897 4.17876282,-1.3195 7.69777212,-2.7766 10.55703842,-4.3712 3.353984,-1.8145 6.268164,-3.9314 8.742547,-6.3507 l -1.814491,20.0418 c -3.629056,1.9795 -7.422988,3.5191 -11.3818067,4.6187 -3.9589521,1.0998 -7.6154226,1.9245 -10.9694226,2.4743 -3.9039566,0.6049 -7.7803657,0.9898 -11.6292377,1.1547 1.979399,3.629 3.766396,7.3955 5.360996,11.2993 1.3745637,3.3541 2.6117154,7.1206 3.711459,11.2994 1.1546217,4.1238 1.7319592,8.3026 1.7320141,12.5365 -5.49e-5,0.4948 -0.082532,1.5395 -0.2474306,3.1341 -0.1100237,1.5945 -0.3299618,3.5465 -0.6598149,5.8558 -0.3299611,2.3094 -0.7973295,4.8662 -1.4021066,7.6704 -0.6048824,2.8042 -1.4021579,5.6359 -2.391829,8.4951 -0.934787,2.8592 -2.089462,5.6084 -3.464028,8.2477 -1.37466,2.6942 -2.996703,5.0585 -4.866135,7.093 -1.814531,2.0894 -3.931435,3.7664 -6.350718,5.0311 -2.36437,1.2646 -5.058612,1.8969 -8.082733,1.897 -3.024176,-10e-5 -5.663433,-0.6874 -7.917779,-2.062 -2.254384,-1.3746 -4.178843,-3.2441 -5.77338,-5.6084 -1.594565,-2.3094 -2.941685,-5.0311 -4.041366,-8.1652 -1.044716,-3.0792 -1.869484,-6.3508 -2.474306,-9.8148 -0.604837,-3.464 -1.044713,-7.0105 -1.31963,-10.6395 -0.219944,-3.574 -0.329913,-7.038 -0.329907,-10.3921 m 22.021322,-43.3003 c -0.219966,0 -0.467396,0.6324 -0.742292,1.897 -0.274949,1.2097 -0.549872,2.8042 -0.824769,4.7836 -0.219964,1.9245 -0.439902,4.7287 -0.659814,8.4127 -0.219964,3.629 -0.41241,6.6256 -0.577338,8.9899 -0.164979,2.3094 -0.30244,4.4813 -0.412385,6.5157 -0.109993,1.9795 -0.164978,3.5465 -0.164953,4.7012 -2.5e-5,8.0827 0.137437,14.5159 0.412384,19.2996 0.329882,4.7836 0.714774,8.4126 1.154676,10.8869 0.494835,2.4743 1.017188,4.0689 1.56706,4.7837 0.604803,0.7697 1.209632,1.1546 1.814491,1.1547 1.869445,-1e-4 3.354027,-0.8523 4.453751,-2.5568 1.154641,-1.7046 2.006901,-3.8765 2.556782,-6.5157 0.604794,-2.5843 0.989686,-5.4435 1.154677,-8.5776 0.2199,-3.0791 0.329869,-6.0483 0.329907,-8.9075 -3.8e-5,-1.9245 -0.05502,-4.2888 -0.164954,-7.093 -0.110006,-2.8042 -0.27496,-5.8559 -0.494861,-9.1549 -0.219975,-3.2991 -0.687343,-7.0655 -1.402107,-11.2994 -0.659849,-4.2887 -1.622078,-7.5053 -2.88669,-9.6498 -1.209692,-2.1443 -2.199413,-3.9588 -2.969167,-5.4434 -0.769813,-1.4846 -1.484612,-2.2269 -2.144398,-2.2269 m 20.041877,-86.2708 c -3.07918,7.31307 -5.608468,14.26861 -7.587871,20.86664 -1.814529,6.04841 -3.189142,11.4094 -4.123843,16.08299 -0.879788,4.67378 -1.51211,8.79757 -1.896968,12.37157 -0.384926,3.519 -0.769817,6.7906 -1.154676,9.8147 3.354023,-6.3231 6.818048,-12.4814 10.392085,-18.47481 3.57395,-5.99323 6.73556,-11.60165 9.4848387,-16.82528 2.7491732,-5.27841 5.0860153,-10.36448 7.01053326,-15.25822 1.97938294,-4.8935 2.96910424,-8.38502 2.96916704,-10.47456 -6.28e-5,-2.91405 -0.4124467,-5.03095 -1.2371529,-6.35072 -0.82482936,-1.37448 -2.1994424,-2.06178 -4.1238431,-2.06192 -2.8592525,1.4e-4 -4.7837106,0.65995 -5.7733804,1.97945 -0.7698349,1.09982 -2.0894636,3.87654 -3.9588896,8.33016"
         style="line-height:125%;fill:#3f3f3f;fill-opacity:1;stroke:none;font-family:Pacifico;-inkscape-font-specification:Pacifico"
         id="path3082"
         inkscape:connector-curvature="0"
         sodipodi:nodetypes="ccsccccccccccccccccccccccccccccccccccccccsccsccccccccccccccccccccccccscccsccccccc" />
      <path
         d="m 30.783088,1081.8884 c -2.969193,0 -5.745911,-1.2921 -8.330163,-3.8764 -2.529308,-2.6392 -4.756181,-6.1582 -6.680626,-10.557 -1.869487,-4.3988 -3.354069,-9.4848 -4.45375,-15.2582 -1.044716,-5.8284 -1.5670685,-11.9317 -1.5670606,-18.3099 -7.9e-6,-4.8936 0.3573916,-10.1996 1.0721996,-15.918 0.714789,-5.7734 1.759495,-11.7117 3.13412,-17.815 1.374601,-6.10324 2.996645,-12.23402 4.866135,-18.39238 1.924441,-6.15817 4.068838,-12.069 6.433195,-17.73253 2.419296,-5.66329 5.031061,-10.9418 7.835302,-15.83556 2.80418,-4.94847 5.745851,-9.23726 8.825025,-12.86639 3.079093,-3.68381 6.295687,-6.5705 9.649792,-8.66007 3.354006,-2.08925 6.763047,-3.13396 10.227131,-3.13412 2.364275,1.6e-4 4.316225,0.55001 5.855857,1.64954 1.539501,1.04486 2.749161,2.44697 3.628982,4.20632 0.879683,1.75966 1.484513,3.76659 1.814491,6.02081 0.384821,2.19953 0.577266,4.45389 0.577338,6.7631 -7.2e-5,5.16869 -0.604901,10.4472 -1.814491,15.83556 -1.154745,5.33362 -2.749296,10.72211 -4.783658,16.16547 -1.979508,5.38859 -4.288857,10.80456 -6.928056,16.24794 -2.639315,5.44356 -5.388541,10.85951 -8.247686,16.24791 -2.859245,5.3336 -5.745933,10.6121 -8.660071,15.8356 -2.859236,5.1686 -5.553478,10.2272 -8.082732,15.1757 -0.274956,0.5499 -0.577371,1.2647 -0.907246,2.1444 -0.274955,0.8798 -0.549877,1.8421 -0.824768,2.8867 -0.274954,0.9898 -0.549877,2.062 -0.824769,3.2166 -0.274953,1.1547 -0.494891,2.2819 -0.659815,3.3816 l 0,1.1546 c -3e-5,1.4297 0.137431,2.8318 0.412385,4.2064 0.329876,1.3196 0.714768,2.5293 1.154676,3.6289 0.439844,1.0448 0.907213,1.897 1.402106,2.5568 0.494828,0.6049 0.962196,0.9073 1.402107,0.9073 1.044671,0 2.226839,-0.2199 3.546505,-0.6598 1.374575,-0.4399 2.804172,-1.0172 4.288797,-1.7321 1.539524,-0.7697 3.106583,-1.622 4.701181,-2.5567 1.594504,-0.9897 3.134071,-1.9795 4.618704,-2.9692 3.463973,-2.3093 7.092952,-4.9761 10.886946,-8.0003 l 6.763103,17.3202 c -4.893692,3.519 -9.73233,6.6531 -14.515928,9.4023 -2.089467,1.1547 -4.261355,2.3094 -6.515672,3.4641 -2.199429,1.0997 -4.426302,2.0894 -6.680626,2.9691 -2.254407,0.8798 -4.453788,1.5946 -6.598149,2.1444 -2.144431,0.4949 -4.151366,0.7423 -6.020811,0.7423 m 0.08248,-65.9815 c 2.474274,-4.3987 5.086039,-9.3473 7.835302,-14.8458 2.804174,-5.49837 5.44343,-11.16177 7.917779,-16.99023 2.474258,-5.82826 4.618655,-11.62913 6.433195,-17.40262 1.814438,-5.82824 2.969113,-11.24422 3.464028,-16.24794 -5.5e-5,-1.59442 -0.05504,-2.94154 -0.164954,-4.04137 -0.05504,-1.15454 -0.302469,-1.73187 -0.742291,-1.73201 -1.594605,1.4e-4 -3.326618,1.04484 -5.196043,3.13412 -1.814537,2.03456 -3.656519,4.81128 -5.525949,8.33016 -1.814533,3.51914 -3.574037,7.61549 -5.27852,12.28906 -1.649573,4.67379 -3.134155,9.64989 -4.45375,14.92831 -1.319662,5.27861 -2.364368,10.72208 -3.134121,16.33042 -0.769813,5.5535 -1.154705,10.9695 -1.154676,16.2479"
         style="line-height:125%;fill:#3f3f3f;fill-opacity:1;stroke:none;font-family:Pacifico;-inkscape-font-specification:Pacifico"
         id="path3084"
         inkscape:connector-curvature="0" />
      <path
         d="m 107.56905,1018.2988 c 1.59449,3.1891 2.77665,6.5707 3.5465,10.1446 0.82471,3.5191 1.23709,7.5055 1.23716,11.9592 -7e-5,3.2441 -0.35747,6.5157 -1.0722,9.8147 -0.71487,3.2991 -1.75957,6.4882 -3.13412,9.5673 -1.31969,3.0792 -2.96923,5.9659 -4.94862,8.6601 -1.92451,2.6943 -4.151384,5.0311 -6.680622,7.0105 -2.474354,1.9795 -5.196087,3.5465 -8.16521,4.7012 -2.969206,1.1547 -6.130815,1.732 -9.484839,1.732 -4.83867,0 -8.990001,-1.0447 -12.454006,-3.1341 -3.40906,-2.1444 -6.213271,-4.9211 -8.41264,-8.3302 -2.199392,-3.409 -3.821435,-7.2579 -4.866135,-11.5467 -0.989728,-4.2888 -1.484588,-8.6326 -1.484583,-13.0314 -5e-6,-7.2579 0.907239,-13.4986 2.721736,-18.7222 1.814482,-5.2785 4.398754,-9.8422 7.752825,-13.6912 3.409025,-3.9038 7.560356,-6.9554 12.454007,-9.1549 4.893594,-2.2543 10.392046,-3.3815 16.495372,-3.3816 5.223485,10e-5 10.117105,0.8249 14.680885,2.4744 4.56365,1.5946 8.82495,3.7665 12.78391,6.5156 4.0138,2.6943 7.72525,6.1034 11.13438,10.2272 3.46394,4.1239 6.68053,8.0553 9.64979,11.7941 l -1.56706,11.6293 c -1.48467,-1.9794 -3.49161,-4.1238 -6.02081,-6.4332 -2.52938,-2.3093 -5.22362,-4.8661 -8.08273,-7.6704 -2.80429,-2.8041 -5.58101,-5.1684 -8.33017,-7.093 -2.74929,-1.9793 -5.11363,-3.6289 -7.09301,-4.9486 l -0.65981,0.9073 m -25.485353,47.7541 c 1.869438,0 3.683927,-0.9348 5.443473,-2.8042 1.759463,-1.9245 3.29903,-4.3163 4.618704,-7.1755 1.319583,-2.9142 2.364289,-6.4057 3.134121,-10.4746 0.824719,-4.1238 1.237103,-7.7803 1.237153,-10.9694 -5e-5,-2.5293 -0.192496,-4.8661 -0.577338,-7.0105 -0.384941,-2.1994 -0.962279,-4.0963 -1.732014,-5.691 -0.769831,-1.5944 -1.759553,-2.8591 -2.969167,-3.7939 -1.209705,-0.9347 -2.666794,-1.402 -4.371274,-1.4021 -2.254406,10e-5 -4.398802,0.9623 -6.433195,2.8867 -2.034462,1.9245 -3.821458,4.3988 -5.360996,7.4229 -1.539596,2.9692 -2.749255,6.2683 -3.628982,9.8972 -0.879778,3.6291 -1.319654,7.7254 -1.31963,12.2891 -2.4e-5,2.3094 0.219914,4.4813 0.659815,6.5157 0.439852,2.0344 1.127158,3.8214 2.061921,5.361 0.934711,1.4846 2.171862,2.6942 3.711459,3.6289 1.539537,0.8798 3.381518,1.3197 5.52595,1.3197"
         style="line-height:125%;fill:#3f3f3f;fill-opacity:1;stroke:none;font-family:Pacifico;-inkscape-font-specification:Pacifico"
         id="path3086"
         inkscape:connector-curvature="0" />
      <path
         d="m 164.0657,1041.1449 c -1.5946,5.9933 -3.49156,11.4918 -5.6909,16.4953 -2.14444,4.9487 -4.45379,9.2375 -6.92806,12.8664 -2.47434,3.574 -5.03112,6.3782 -7.67035,8.4127 -2.63928,1.9794 -5.22355,2.9691 -7.75282,2.9691 -4.28882,0 -7.45043,-3.1616 -9.48484,-9.4848 -1.97945,-6.3232 -2.96918,-15.6706 -2.96917,-28.0421 -10e-6,-1.7595 -10e-6,-3.2991 0,-4.6187 -10e-6,-1.3746 0.0275,-2.7217 0.0825,-4.0414 0.055,-1.3746 0.27491,-3.3815 0.65981,-6.0208 0.38489,-2.6942 0.65981,-5.141 0.82477,-7.3405 0.055,-0.5498 0.16495,-1.4845 0.32991,-2.8042 0.21993,-1.3745 0.52234,-2.9141 0.90724,-4.6187 0.43987,-1.7044 0.98972,-3.4639 1.64954,-5.2785 0.71479,-1.8694 1.59454,-3.5464 2.63926,-5.0311 1.09968,-1.5395 2.36432,-2.8041 3.79394,-3.7939 1.48456,-0.98967 3.24407,-1.48453 5.27851,-1.48461 l 1.97945,0.16495 c 2.41929,9e-5 4.26128,0.49495 5.52595,1.48456 1.3196,0.9348 1.97941,2.1995 1.97944,3.794 l -6.59815,47.919 1.0722,-0.083 c 2.4193,-5.6083 4.64617,-11.2718 6.68063,-16.9902 2.08938,-5.7733 3.87638,-10.502 5.361,-14.186 1.53952,-3.6839 2.99661,-6.9005 4.37127,-9.6498 1.42955,-2.7492 2.96912,-5.031 4.6187,-6.8456 1.64949,-1.8144 3.49147,-3.1615 5.52595,-4.0414 2.08936,-0.93461 4.56367,-1.40197 7.42292,-1.40206 2.41926,9e-5 4.26124,0.49495 5.52595,1.48456 1.31956,0.9348 1.97938,2.1995 1.97945,3.794 l -7.67035,47.919 1.23715,-0.083 20.53674,-47.3417 c 0.65973,-1.5395 2.08933,-2.8866 4.2888,-4.0413 2.19929,-1.2096 4.81106,-1.81445 7.8353,-1.81453 3.13402,8e-5 5.66331,0.65993 7.58787,1.97943 1.92436,1.2647 2.88658,2.9143 2.88669,4.9486 -1.1e-4,1.5397 -0.27503,3.1892 -0.82477,4.9486 -0.49496,1.7596 -1.04481,3.4091 -1.64954,4.9486 -0.60493,1.4847 -1.18227,2.7768 -1.73201,3.8765 -0.54995,1.0447 -0.85236,1.6221 -0.90725,1.732 -1.20976,2.1994 -2.4744,4.7837 -3.79393,7.7528 -1.26474,2.9692 -2.28196,5.1686 -3.05165,6.5981 -0.93483,1.6496 -1.75959,3.1892 -2.4743,4.6188 0.76969,2.1444 1.75941,4.0688 2.96917,5.7733 1.04461,1.4297 2.33674,2.7493 3.87641,3.9589 1.53947,1.2097 3.38145,1.8145 5.52595,1.8145 1.81438,0 3.9038,-0.4673 6.26824,-1.4021 20.26112,-5.4709 17.37322,11.7631 2.96917,16.9078 -3.84903,1.3746 -7.56049,2.0619 -11.13438,2.0619 -2.80431,0 -5.47106,-0.3299 -8.00026,-0.9897 -2.47439,-0.6598 -4.67377,-1.7045 -6.59815,-3.1342 -1.86955,-1.4295 -3.38163,-3.2715 -4.53622,-5.5259 -1.09977,-2.3093 -1.67711,-5.0861 -1.73202,-8.3302 -1.86955,4.3988 -3.8215,8.4402 -5.85585,12.1241 -2.0345,3.629 -4.12392,6.7631 -6.26825,9.4024 -2.14446,2.6393 -4.31635,4.7012 -6.51567,6.1858 -2.19944,1.4845 -4.39882,2.2268 -6.59815,2.2268 -0.76983,0 -1.45714,-0.5773 -2.06192,-1.732 -0.5499,-1.2096 -1.01726,-2.8042 -1.4021,-4.7836 -0.38495,-2.0345 -0.71485,-4.3713 -0.98973,-7.0106 -0.21998,-2.6942 -0.41243,-5.5259 -0.57733,-8.4951 -0.11002,-2.9691 -0.1925,-6.0208 -0.24744,-9.1549 -0.055,-3.1341 -0.0825,-6.1858 -0.0825,-9.155 l -2.39183,-0.4123"
         style="line-height:125%;fill:#3f3f3f;fill-opacity:1;stroke:none;font-family:Pacifico;-inkscape-font-specification:Pacifico"
         id="path3088"
         inkscape:connector-curvature="0"
         sodipodi:nodetypes="ccccscscccccccccccccccccccccccccccccccccccccccsccscccccccsccccccc" />
    </g>
    <g
       style="font-size:24px;font-style:normal;font-weight:normal;line-height:125%;letter-spacing:0px;word-spacing:0px;fill:#3f3f3f;fill-opacity:1;stroke:#3f3f3f;stroke-width:2;stroke-linecap:round;stroke-linejoin:round;stroke-miterlimit:4;stroke-opacity:1;stroke-dasharray:none;font-family:Sans"
       id="text3770"
       transform="translate(44.608,141)">
      <path
         d="m 73.176,786.08218 c -1.12e-4,2.20805 -0.432112,4.27205 -1.296,6.192 -0.76811,1.82405 -1.872109,3.45605 -3.312,4.896 -1.440106,1.44004 -3.120104,2.59204 -5.04,3.456 -1.920101,0.76804 -3.936099,1.15204 -6.048,1.152 l -37.584,0 c -4.224055,4e-5 -7.872051,-1.53596 -10.944,-4.608 -3.0720449,-3.07195 -4.6080433,-6.76795 -4.608,-11.088 -4.33e-5,-2.11194 0.3839563,-4.12794 1.152,-6.048 0.8639546,-1.91994 1.9679535,-3.59993 3.312,-5.04 1.439951,-1.43993 3.071949,-2.54393 4.896,-3.312 1.919945,-0.86393 3.983943,-1.29593 6.192,-1.296 l 37.584,0 c 2.111901,7e-5 4.127899,0.43207 6.048,1.296 1.919896,0.76807 3.599894,1.87207 5.04,3.312 1.439891,1.44007 2.54389,3.12006 3.312,5.04 0.863888,1.92006 1.295888,3.93606 1.296,6.048 m 0,37.584 c -1.12e-4,2.20802 -0.432112,4.27201 -1.296,6.192 -0.76811,1.82401 -1.872109,3.45601 -3.312,4.896 -1.440106,1.44001 -3.120104,2.592 -5.04,3.456 -1.920101,0.768 -3.936099,1.152 -6.048,1.152 l -37.584,0 c -14.6880442,0 -27.2160317,-5.18399 -37.584,-15.552 -10.368011,-10.36797 -15.552006,-22.94396 -15.552,-37.728 -6e-6,-14.68793 5.183989,-27.21592 15.552,-37.584 10.4639682,-10.4639 22.9919557,-15.69589 37.584,-15.696 l 37.584,0 c 2.111901,1.1e-4 4.127899,0.43211 6.048,1.296 1.919896,0.76811 3.599894,1.87211 5.04,3.312 1.439891,1.4401 2.54389,3.1201 3.312,5.04 0.863888,1.9201 1.295888,3.9361 1.296,6.048 -1.12e-4,2.20809 -0.432112,4.27209 -1.296,6.192 -0.76811,1.82409 -1.872109,3.45608 -3.312,4.896 -1.440106,1.44008 -3.120104,2.59208 -5.04,3.456 -1.920101,0.76808 -3.936099,1.15208 -6.048,1.152 l -37.584,0 c -6.048053,8e-5 -11.2320477,2.16008 -15.552,6.48 -4.22403912,4.22407 -6.336037,9.36006 -6.336,15.408 -3.7e-5,5.95205 2.11196088,11.13604 6.336,15.552 4.4159522,4.22404 9.599947,6.33603 15.552,6.336 l 37.584,0 c 2.111901,3e-5 4.127899,0.43203 6.048,1.296 1.919896,0.76803 3.599894,1.87203 5.04,3.312 1.439891,1.44003 2.54389,3.12003 3.312,5.04 0.863888,1.92002 1.295888,3.93602 1.296,6.048 m 10.368,-37.584 c -1.23e-4,-3.64794 -0.720122,-7.05594 -2.16,-10.224 -1.440119,-3.26393 -3.408117,-6.09593 -5.904,-8.496 2.495883,-2.39992 4.463881,-5.18392 5.904,-8.352 1.439878,-3.26391 2.159877,-6.76791 2.16,-10.512 -1.23e-4,-3.5519 -0.672122,-6.9119 -2.016,-10.08 -1.344119,-3.16789 -3.216117,-5.95189 -5.616,-8.352 -2.400113,-2.39989 -5.18411,-4.27188 -8.352,-5.616 -3.168103,-1.34388 -6.5281,-2.01588 -10.08,-2.016 l -37.584,0 c -17.4720414,1.2e-4 -32.448026,6.24011 -44.928,18.72 -12.384002,12.38409 -18.575995,27.36007 -18.576,44.928 5e-6,17.66404 6.191998,32.68802 18.576,45.072 12.383974,12.384 27.3599587,18.57599 44.928,18.576 l 37.584,0 c 3.5519,-10e-6 6.911897,-0.67201 10.08,-2.016 3.16789,-1.344 5.951887,-3.216 8.352,-5.616 2.399883,-2.4 4.271881,-5.13599 5.616,-8.208 1.343878,-3.16799 2.015877,-6.57599 2.016,-10.224 -1.23e-4,-3.64798 -0.720122,-7.05597 -2.16,-10.224 -1.440119,-3.26397 -3.408117,-6.09597 -5.904,-8.496 2.495883,-2.39996 4.463881,-5.18396 5.904,-8.352 1.439878,-3.26395 2.159877,-6.76795 2.16,-10.512"
         style="font-size:144px;font-variant:normal;font-stretch:normal;fill:#3f3f3f;fill-opacity:1;stroke:#3f3f3f;stroke-width:2;stroke-linecap:round;stroke-linejoin:round;stroke-miterlimit:4;stroke-opacity:1;stroke-dasharray:none;font-family:Technique OL BRK;-inkscape-font-specification:Technique OL BRK"
         id="path3775"
         inkscape:connector-curvature="0" />
      <path
         d="m 191.01975,786.08218 c -1.1e-4,14.68804 -5.23211,27.26403 -15.696,37.728 -10.36809,10.36801 -22.89607,15.552 -37.584,15.552 l -37.584,0 c -4.224017,0 -7.872013,-1.536 -10.944,-4.608 -3.072007,-3.07199 -4.608006,-6.76799 -4.608,-11.088 l 0,-75.168 c -6e-6,-2.1119 0.383994,-4.1279 1.152,-6.048 0.863992,-1.9199 1.967991,-3.5999 3.312,-5.04 1.439988,-1.43989 3.071987,-2.54389 4.896,-3.312 1.919983,-0.86389 3.983981,-1.29589 6.192,-1.296 2.11198,1.1e-4 4.12797,0.43211 6.048,1.296 1.91997,0.76811 3.59997,1.87211 5.04,3.312 1.43997,1.4401 2.54397,3.1201 3.312,5.04 0.86396,1.9201 1.29596,3.9361 1.296,6.048 l 0,59.472 21.888,0 c 5.95194,3e-5 11.13593,-2.11196 15.552,-6.336 4.31992,-4.12796 6.47992,-9.31195 6.48,-15.552 l 0,-37.584 c -8e-5,-2.1119 0.38392,-4.1279 1.152,-6.048 0.86392,-1.9199 1.96792,-3.5999 3.312,-5.04 1.43991,-1.43989 3.07191,-2.54389 4.896,-3.312 1.91991,-0.86389 3.98391,-1.29589 6.192,-1.296 2.1119,1.1e-4 4.1279,0.43211 6.048,1.296 1.9199,0.76811 3.59989,1.87211 5.04,3.312 1.43989,1.4401 2.54389,3.1201 3.312,5.04 0.86389,1.9201 1.29589,3.9361 1.296,6.048 l 0,37.584 m 10.368,-37.584 c -1.2e-4,-3.5519 -0.67212,-6.9119 -2.016,-10.08 -1.34412,-3.16789 -3.21612,-5.95189 -5.616,-8.352 -2.40011,-2.39989 -5.18411,-4.27188 -8.352,-5.616 -3.1681,-1.34388 -6.5281,-2.01588 -10.08,-2.016 -3.64809,1.2e-4 -7.05609,0.67212 -10.224,2.016 -3.16808,1.34412 -5.90408,3.21611 -8.208,5.616 -2.30408,2.40011 -4.12807,5.18411 -5.472,8.352 -1.34407,3.1681 -2.01607,6.5281 -2.016,10.08 l 0,37.584 c -7e-5,3.16805 -1.10407,5.85605 -3.312,8.064 -2.30406,2.30405 -5.08806,3.45604 -8.352,3.456 l -11.52,0 0,-49.104 c -5e-5,-3.5519 -0.67205,-6.9119 -2.016,-10.08 -1.34404,-3.16789 -3.21604,-5.95189 -5.616,-8.352 -2.40004,-2.39989 -5.18403,-4.27188 -8.352,-5.616 -3.16803,-1.34388 -6.52802,-2.01588 -10.08,-2.016 -3.648018,1.2e-4 -7.056014,0.67212 -10.224,2.016 -3.168008,1.34412 -5.904005,3.21611 -8.208,5.616 -2.304001,2.40011 -4.127999,5.18411 -5.472,8.352 -1.343996,3.1681 -2.015995,6.5281 -2.016,10.08 l 0,75.168 c 5e-6,7.20001 2.544002,13.344 7.632,18.432 5.087992,5.08799 11.183986,7.63199 18.288,7.632 l 37.584,0 c 17.56792,-10e-6 32.54391,-6.192 44.928,-18.576 12.47988,-12.47998 18.71988,-27.50396 18.72,-45.072 l 0,-37.584"
         style="font-size:144px;font-variant:normal;font-stretch:normal;fill:#3f3f3f;fill-opacity:1;stroke:#3f3f3f;stroke-width:2;stroke-linecap:round;stroke-linejoin:round;stroke-miterlimit:4;stroke-opacity:1;stroke-dasharray:none;font-family:Technique OL BRK;-inkscape-font-specification:Technique OL BRK"
         id="path3777"
         inkscape:connector-curvature="0" />
    </g>
    <path
       style="fill:#7c56c2;fill-opacity:1;fill-rule:nonzero;stroke:#3f3f3f;stroke-width:2;stroke-linecap:round;stroke-linejoin:round;stroke-miterlimit:4;stroke-opacity:1;stroke-dasharray:none"
       d="m 139.1943,181.41044 c -3.01442,-1.42239 -5.75497,-4.02667 -7.32053,-6.95653 l -1.12838,-2.11172 0,-41.5 0,-41.500001 1.12233,-2.277354 c 5.33111,-10.817476 20.70414,-10.801187 25.81559,0.02735 1.03977,2.202747 1.06733,2.927288 1.31208,34.500005 l 0.25,32.25 13.5,-0.0203 c 11.68469,-0.0177 13.86978,-0.14287 16.25,-0.93139 7.32787,-2.42756 12.62131,-7.36637 15.34247,-14.31463 0.77312,-1.9741 0.9057,-4.93499 1.14114,-25.48362 0.25533,-22.284987 0.31009,-23.344443 1.31922,-25.525403 2.17283,-4.695984 5.59833,-7.427802 10.68065,-8.517765 4.96143,-1.064037 11.0322,1.455611 14.03995,5.827229 2.91788,4.240992 3.07817,5.943495 2.86076,30.385399 -0.22,24.73242 -0.42898,26.62816 -3.86713,35.08054 -2.34195,5.75746 -5.7819,10.9726 -10.51388,15.93956 -7.46629,7.83705 -13.95555,11.75673 -24.75318,14.95157 -3.29594,0.9752 -4.95762,1.04565 -28.5,1.20823 l -25,0.17265 -2.55109,-1.20376 0,-1e-5 z"
       id="path3781"
       inkscape:connector-curvature="0"
       transform="translate(0,796.36218)" />
    <path
       style="fill:#7c56c2;fill-opacity:1;fill-rule:nonzero;stroke:#3f3f3f;stroke-width:2;stroke-linecap:round;stroke-linejoin:round;stroke-miterlimit:4;stroke-opacity:1;stroke-dasharray:none"
       d="M 56.745386,182.23506 C 38.871328,179.7649 22.332273,166.29382 15.770588,148.86103 c -3.69073,-9.80537 -4.058454,-22.49826 -0.961637,-33.19327 4.60707,-15.910742 18.878121,-30.158035 34.842271,-34.784264 7.002943,-2.029374 12.378939,-2.368564 34.844164,-2.198441 l 20.750004,0.157134 2.83027,1.389891 c 3.55497,1.745774 5.99646,4.420867 7.35933,8.063451 2.11861,5.662508 1.02001,10.409445 -3.4431,14.877209 -4.41449,4.41909 -4.41332,4.41891 -28.462254,4.42234 -11.15634,0.002 -21.60884,0.21982 -23.227779,0.48495 -8.478983,1.38855 -15.832151,8.18853 -18.125795,16.76216 -2.57289,9.61745 1.866042,20.71899 10.248746,25.63158 5.535933,3.24427 5.639715,3.25631 30.820578,3.57622 l 23.000004,0.2922 2.67777,1.48319 c 1.47278,0.81575 3.3336,2.27825 4.13516,3.25 1.88691,2.28755 3.43707,6.46698 3.43707,9.26681 0,5.2459 -3.61542,10.68555 -8.66455,13.03644 l -2.58545,1.20379 -23.500004,-0.07 c -12.925,-0.0385 -24.175,-0.16332 -25,-0.27733 l 0,0 z"
       id="path3783"
       inkscape:connector-curvature="0"
       transform="translate(0,796.36218)" />
    <path
       style="fill:#7c56c2;fill-opacity:1;fill-rule:nonzero;stroke:#3f3f3f;stroke-width:2;stroke-linecap:butt;stroke-linejoin:miter;stroke-miterlimit:4;stroke-opacity:1;stroke-dasharray:none"
       d="m 60.245386,144.43806 c -5.585127,-2.22732 -8.87487,-6.0916 -9.716056,-11.41291 -1.224282,-7.74476 3.934342,-14.98321 11.682885,-16.39312 3.785911,-0.68888 38.190475,-0.72118 41.786385,-0.0392 5.73578,1.08777 9.57152,4.23244 11.53855,9.45972 2.47466,6.57628 -0.63595,14.13281 -7.29176,17.71366 -1.95295,1.0507 -2.52343,1.07829 -24.250004,1.17304 -16.299269,0.0711 -22.651173,-0.063 -23.75,-0.50116 l 0,0 z"
       id="path3785"
       inkscape:connector-curvature="0"
       transform="translate(0,796.36218)" />
  </g>
</svg>
